<?xml version="1.0" encoding="UTF-8" standalone="no"?>
<!-- Created with Inkscape (http://www.inkscape.org/) -->

<svg
   xmlns:dc="http://purl.org/dc/elements/1.1/"
   xmlns:cc="http://creativecommons.org/ns#"
   xmlns:rdf="http://www.w3.org/1999/02/22-rdf-syntax-ns#"
   xmlns:svg="http://www.w3.org/2000/svg"
   xmlns="http://www.w3.org/2000/svg"
   xmlns:sodipodi="http://sodipodi.sourceforge.net/DTD/sodipodi-0.dtd"
   xmlns:inkscape="http://www.inkscape.org/namespaces/inkscape"
   width="16"
   height="16"
   viewBox="0 0 4.2333332 4.2333335"
   version="1.1"
   id="svg5111"
   sodipodi:docname="cpuLight.svg"
   inkscape:version="0.92.4 (5da689c313, 2019-01-14)">
  <defs
     id="defs5105" />
  <sodipodi:namedview
     id="base"
     pagecolor="#ffffff"
     bordercolor="#666666"
     borderopacity="1.0"
     inkscape:pageopacity="0"
     inkscape:pageshadow="2"
     inkscape:zoom="36.211029"
     inkscape:cx="4.8656628"
     inkscape:cy="9.1390436"
     inkscape:document-units="mm"
     inkscape:current-layer="layer1"
     showgrid="true"
     units="px"
     inkscape:window-width="1920"
     inkscape:window-height="1017"
     inkscape:window-x="-8"
     inkscape:window-y="-8"
     inkscape:window-maximized="1">
    <inkscape:grid
       type="xygrid"
       id="grid5656" />
  </sodipodi:namedview>
  <metadata
     id="metadata5108">
    <rdf:RDF>
      <cc:Work
         rdf:about="">
        <dc:format>image/svg+xml</dc:format>
        <dc:type
           rdf:resource="http://purl.org/dc/dcmitype/StillImage" />
        <dc:title></dc:title>
      </cc:Work>
    </rdf:RDF>
  </metadata>
  <g
     inkscape:label="Layer 1"
     inkscape:groupmode="layer"
     id="layer1"
     transform="translate(0,-292.76665)">
    <path
       style="opacity:1;fill:#282828;fill-opacity:1;fill-rule:nonzero;stroke:none;stroke-width:1.00157475;stroke-linecap:butt;stroke-linejoin:round;stroke-miterlimit:4;stroke-dasharray:none;stroke-opacity:1;paint-order:normal"
       d="M 3,1 C 1.8920001,1 1,1.891971 1,3 v 10 c 0,1.108029 0.8920001,2 2,2 h 10 c 1.108,0 2,-0.891971 2,-2 V 3 C 15,1.891971 14.108,1 13,1 Z M 2.8209669,4.9734518 H 5.2805991 V 5.7362142 H 3.3257903 c -0.085528,0 -0.1612143,0.02515 -0.2266178,0.075539 -0.065403,0.050389 -0.1228774,0.117099 -0.1731876,0.2026663 -0.045279,0.080576 -0.079863,0.1768935 -0.105018,0.2874176 -0.025155,0.1107622 -0.038691,0.2227389 -0.038691,0.3482177 v 2.7691589 c 0,0.1157533 0.013536,0.2284811 0.038691,0.3390055 0.025156,0.1057703 0.059739,0.2020883 0.105018,0.2874178 0.045279,0.08557 0.1004143,0.152277 0.1658179,0.202667 0.070435,0.05039 0.1393084,0.07554 0.2339875,0.07554 h 1.9548088 v 0.748023 H 2.8209669 c -0.176086,0 -0.3344755,-0.0434 -0.4753446,-0.12897 C 2.2047531,10.857325 2.0832859,10.742461 1.9826653,10.596522 1.8820446,10.445591 1.8040194,10.268972 1.7486778,10.067747 1.6933365,9.8664247 1.6657689,9.6543919 1.6657689,9.419214 V 6.6482127 c 0,-0.2364985 0.027568,-0.4547001 0.082909,-0.655902 C 1.8040199,5.7859987 1.8820447,5.6070736 1.9826657,5.4561662 2.0883175,5.3052351 2.2121233,5.1879885 2.3529923,5.1024213 2.4938611,5.0168538 2.6499126,4.9734518 2.8209669,4.9734518 Z m 3.0635749,-0.00141 h 2.7470499 c 0.1710561,0 0.3271067,0.052916 0.467975,0.1584483 0.1458992,0.1005416 0.269705,0.238395 0.3703266,0.4145447 0.1006199,0.1711345 0.1786445,0.3753043 0.2339875,0.6116838 0.060372,0.231507 0.090278,0.4749296 0.090278,0.7314412 0,0.2666371 -0.027568,0.5142566 -0.082909,0.7406533 C 9.6559103,7.855319 9.5778853,8.0506304 9.477263,8.2165357 9.376643,8.3824412 9.2528371,8.513255 9.1069363,8.6089714 8.9660666,8.6995301 8.8076772,8.7453105 8.6315917,8.7453105 H 7.0544792 V 11.070446 H 5.8845418 Z m 4.4856422,0.00142 h 1.116507 v 4.4457621 c 0,0.1207449 0.0117,0.2356131 0.03685,0.3463751 0.02516,0.1055332 0.06158,0.2018502 0.106861,0.287418 0.04528,0.08058 0.100414,0.145145 0.165818,0.195296 0.0654,0.05039 0.133802,0.07554 0.226617,0.07554 h 0.648533 c 0.08049,0 0.153846,-0.02515 0.219248,-0.07554 0.0654,-0.05039 0.120538,-0.114958 0.165818,-0.195296 0.04528,-0.08557 0.07986,-0.1818848 0.105017,-0.287418 0.02516,-0.110762 0.0387,-0.2256302 0.0387,-0.3463751 V 4.9734528 h 1.131238 V 9.419215 c 0,0.2315069 -0.02757,0.4473537 -0.08291,0.648533 -0.05535,0.20132 -0.133365,0.377938 -0.233988,0.528775 -0.100619,0.145939 -0.224425,0.260807 -0.370326,0.346374 -0.14087,0.08557 -0.307361,0.12897 -0.482715,0.12897 H 11.53091 c -0.181117,0 -0.344184,-0.0434 -0.490084,-0.12897 -0.14087,-0.08557 -0.260495,-0.200435 -0.361115,-0.346374 -0.10062,-0.150931 -0.178644,-0.32755 -0.233987,-0.528775 -0.05031,-0.2013213 -0.07554,-0.4173861 -0.07554,-0.648533 z M 7.0544792,5.7347945 v 2.2403841 h 1.0796587 c 0.3745585,0 0.5435143,-0.3672443 0.5435143,-1.1017679 0,-0.7596946 -0.1598996,-1.1386162 -0.5435143,-1.1386162 z"
       transform="matrix(0.26458333,0,0,0.26458333,0,292.76665)"
       id="rect5660"
       inkscape:connector-curvature="0"
       sodipodi:nodetypes="ssssssssssccscccsscccsccscccsscccscscccscccsccccccscccsscccsccscccsscccscccsssc" />
  </g>
</svg>
