<?xml version="1.0" encoding="UTF-8" standalone="no"?>
<svg
   xmlns:dc="http://purl.org/dc/elements/1.1/"
   xmlns:cc="http://creativecommons.org/ns#"
   xmlns:rdf="http://www.w3.org/1999/02/22-rdf-syntax-ns#"
   xmlns:svg="http://www.w3.org/2000/svg"
   xmlns="http://www.w3.org/2000/svg"
   xmlns:sodipodi="http://sodipodi.sourceforge.net/DTD/sodipodi-0.dtd"
   xmlns:inkscape="http://www.inkscape.org/namespaces/inkscape"
   sodipodi:docname="dark.svg"
   id="svg70"
   version="1.1"
   height="16"
   width="16"
   inkscape:version="0.92.4 (5da689c313, 2019-01-14)">
  <metadata
     id="metadata76">
    <rdf:RDF>
      <cc:Work
         rdf:about="">
        <dc:format>image/svg+xml</dc:format>
        <dc:type
           rdf:resource="http://purl.org/dc/dcmitype/StillImage" />
        <dc:title></dc:title>
      </cc:Work>
    </rdf:RDF>
  </metadata>
  <defs
     id="defs74" />
  <sodipodi:namedview
     pagecolor="#ffffff"
     bordercolor="#666666"
     borderopacity="1"
     objecttolerance="10"
     gridtolerance="10"
     guidetolerance="10"
     inkscape:pageopacity="0"
     inkscape:pageshadow="2"
     inkscape:window-width="1920"
     inkscape:window-height="1017"
     id="namedview72"
     showgrid="false"
     inkscape:zoom="53"
     inkscape:cx="4.9339623"
     inkscape:cy="8"
     inkscape:window-x="-8"
     inkscape:window-y="-8"
     inkscape:window-maximized="1"
     inkscape:current-layer="svg70" />
  <g
     id="g47">
    <title
       id="title44">background</title>
    <rect
       fill="none"
       id="canvas_background"
       height="18"
       width="18"
       y="-1"
       x="-1" />
  </g>
  <g
     id="g68">
    <title
       id="title49">Layer 1</title>
    <g
       stroke="null"
       id="svg_2">
      <path
         style="fill:#f0f0f0;fill-opacity:1;opacity:1"
         id="outline_7_"
         fill-rule="evenodd"
         clip-rule="evenodd"
         d="m8.336983,6.886718l1.443389,0l0,1.475474l0.729777,0c0.337013,0 0.68364,-0.060067 1.002805,-0.168201c0.156842,-0.053148 0.33285,-0.127176 0.487579,-0.220216c-0.203776,-0.266016 -0.307776,-0.601928 -0.338422,-0.933032c-0.041576,-0.450351 0.04926,-1.036481 0.354035,-1.388955l0.151729,-0.175487l0.180783,0.145331c0.455158,0.365731 0.838002,0.876761 0.905509,1.459279c0.548045,-0.16122 1.191579,-0.123074 1.674688,0.155771l0.198234,0.114318l-0.104337,0.203653c-0.408561,0.797406 -1.262759,1.04438 -2.097884,1.000723c-1.249625,3.112444 -3.970194,4.58599 -7.268932,4.58599c-1.704232,0 -3.267817,-0.637105 -4.158202,-2.149103l-0.014604,-0.024707l-0.129748,-0.263935c-0.300949,-0.665546 -0.400908,-1.39465 -0.333095,-2.123202l0.020329,-0.218195l1.234256,0l0,-1.475474l1.443298,0l0,-1.443359l2.886779,0l0,-1.443389l1.732031,0l0,2.886718z"
         stroke="null" />
      <g
         stroke="null"
         id="svg_3"
         display="none">
        <path
           fill="#c6b2ab"
           d="m2.794387,11.522151c0.184396,0 0.360128,-0.004807 0.527165,-0.014206c0.014573,-0.000796 0.028533,-0.001929 0.042923,-0.002817c0.000153,-0.000061 0.000245,-0.000061 0.000367,-0.000061c0.424696,-0.026176 0.792202,-0.082906 1.099151,-0.170527c0.000061,-0.000061 0.000122,-0.000061 0.000184,-0.000061c0.055812,-0.015951 0.109848,-0.032758 0.16171,-0.050699c0.057985,-0.020114 0.088662,-0.083427 0.068609,-0.141382c-0.020084,-0.058016 -0.083335,-0.088754 -0.141382,-0.068578c-0.389855,0.135075 -0.904223,0.20947 -1.534592,0.223431c-0.000061,0 -0.000122,0 -0.000153,0c-0.320757,0.007103 -0.671394,-0.001347 -1.051697,-0.025809c0,0 0,0 -0.000031,0c-0.019441,-0.001163 -0.038545,-0.002296 -0.058169,-0.003613c-0.061078,-0.003919 -0.114226,0.042065 -0.118451,0.103327c-0.004164,0.0612 0.042127,0.114195 0.103327,0.118359c0.077671,0.005296 0.153995,0.009828 0.229309,0.013869c0.012001,0.000643 0.023574,0.001041 0.035453,0.001653l0,0c0.222145,0.011205 0.434554,0.017114 0.636278,0.017114z"
           id="svg_4"
           stroke="null" />
      </g>
      <g
         stroke="null"
         id="Containers_8_">
        <path
           fill-rule="evenodd"
           clip-rule="evenodd"
           fill="#000000"
           d="m3.563321,7.231538l0.098796,0l0,1.042513l-0.098796,0l0,-1.042513zm-0.189478,0l0.102684,0l0,1.042513l-0.102684,0l0,-1.042513zm-0.18957,0l0.102684,0l0,1.042513l-0.102684,0l0,-1.042513zm-0.18957,0l0.102684,0l0,1.042513l-0.102684,0l0,-1.042513zm-0.189509,0l0.102684,0l0,1.042513l-0.102684,0l0,-1.042513zm-0.18559,0l0.098704,0l0,1.042513l-0.098704,0l0,-1.042513zm-0.104184,-0.104276l1.25088,0l0,1.250942l-1.25088,0l0,-1.250942z"
           id="svg_5"
           stroke="null" />
        <path
           fill-rule="evenodd"
           clip-rule="evenodd"
           fill="#000000"
           d="m5.00668,5.788148l0.098857,0l0,1.042482l-0.098857,0l0,-1.042482zm-0.189478,0l0.102684,0l0,1.042482l-0.102684,0l0,-1.042482zm-0.18957,0l0.102684,0l0,1.042482l-0.102684,0l0,-1.042482zm-0.18957,0l0.102684,0l0,1.042482l-0.102684,0l0,-1.042482zm-0.189448,0l0.102623,0l0,1.042482l-0.102623,0l0,-1.042482zm-0.18559,0l0.098643,0l0,1.042482l-0.098643,0l0,-1.042482zm-0.104306,-0.104245l1.251033,0l0,1.250911l-1.251033,0l0,-1.250911z"
           id="svg_6"
           stroke="null" />
        <path
           fill-rule="evenodd"
           clip-rule="evenodd"
           fill="#000000"
           d="m5.00668,7.231538l0.098857,0l0,1.042513l-0.098857,0l0,-1.042513zm-0.189478,0l0.102684,0l0,1.042513l-0.102684,0l0,-1.042513zm-0.18957,0l0.102684,0l0,1.042513l-0.102684,0l0,-1.042513zm-0.18957,0l0.102684,0l0,1.042513l-0.102684,0l0,-1.042513zm-0.189448,0l0.102623,0l0,1.042513l-0.102623,0l0,-1.042513zm-0.18559,0l0.098643,0l0,1.042513l-0.098643,0l0,-1.042513zm-0.104306,-0.104276l1.251033,0l0,1.250942l-1.251033,0l0,-1.250942z"
           id="svg_7"
           stroke="null" />
        <path
           fill-rule="evenodd"
           clip-rule="evenodd"
           fill="#000000"
           d="m6.4501,7.231538l0.098734,0l0,1.042513l-0.098734,0l0,-1.042513zm-0.189539,0l0.102714,0l0,1.042513l-0.102714,0l0,-1.042513zm-0.189509,0l0.102684,0l0,1.042513l-0.102684,0l0,-1.042513zm-0.18957,0l0.102684,0l0,1.042513l-0.102684,0l0,-1.042513zm-0.18957,0l0.102684,0l0,1.042513l-0.102684,0l0,-1.042513zm-0.185529,0l0.098643,0l0,1.042513l-0.098643,0l0,-1.042513zm-0.104245,-0.104276l1.250972,0l0,1.250942l-1.250972,0l0,-1.250942z"
           id="svg_8"
           stroke="null" />
        <path
           fill-rule="evenodd"
           clip-rule="evenodd"
           fill="#000000"
           d="m6.4501,5.788148l0.098734,0l0,1.042482l-0.098734,0l0,-1.042482zm-0.189539,0l0.102714,0l0,1.042482l-0.102714,0l0,-1.042482zm-0.189509,0l0.102684,0l0,1.042482l-0.102684,0l0,-1.042482zm-0.18957,0l0.102684,0l0,1.042482l-0.102684,0l0,-1.042482zm-0.18957,0l0.102684,0l0,1.042482l-0.102684,0l0,-1.042482zm-0.185529,0l0.098643,0l0,1.042482l-0.098643,0l0,-1.042482zm-0.104245,-0.104245l1.250972,0l0,1.250911l-1.250972,0l0,-1.250911z"
           id="svg_9"
           stroke="null" />
        <path
           fill-rule="evenodd"
           clip-rule="evenodd"
           fill="#000000"
           d="m7.89349,7.231538l0.098765,0l0,1.042513l-0.098765,0l0,-1.042513zm-0.189509,0l0.102684,0l0,1.042513l-0.102684,0l0,-1.042513zm-0.18957,0l0.102684,0l0,1.042513l-0.102684,0l0,-1.042513zm-0.18957,0l0.102684,0l0,1.042513l-0.102684,0l0,-1.042513zm-0.189478,0l0.102684,0l0,1.042513l-0.102684,0l0,-1.042513zm-0.185621,0l0.098704,0l0,1.042513l-0.098704,0l0,-1.042513zm-0.104245,-0.104276l1.250972,0l0,1.250942l-1.250972,0l0,-1.250942z"
           id="svg_10"
           stroke="null" />
        <path
           fill-rule="evenodd"
           clip-rule="evenodd"
           fill="#000000"
           d="m7.89349,5.788148l0.098765,0l0,1.042482l-0.098765,0l0,-1.042482zm-0.189509,0l0.102684,0l0,1.042482l-0.102684,0l0,-1.042482zm-0.18957,0l0.102684,0l0,1.042482l-0.102684,0l0,-1.042482zm-0.18957,0l0.102684,0l0,1.042482l-0.102684,0l0,-1.042482zm-0.189478,0l0.102684,0l0,1.042482l-0.102684,0l0,-1.042482zm-0.185621,0l0.098704,0l0,1.042482l-0.098704,0l0,-1.042482zm-0.104245,-0.104245l1.250972,0l0,1.250911l-1.250972,0l0,-1.250911z"
           id="svg_11"
           stroke="null" />
        <path
           fill-rule="evenodd"
           clip-rule="evenodd"
           fill="#000000"
           d="m7.89349,4.344728l0.098765,0l0,1.042543l-0.098765,0l0,-1.042543zm-0.189509,0l0.102684,0l0,1.042543l-0.102684,0l0,-1.042543zm-0.18957,0l0.102684,0l0,1.042543l-0.102684,0l0,-1.042543zm-0.18957,0l0.102684,0l0,1.042543l-0.102684,0l0,-1.042543zm-0.189478,0l0.102684,0l0,1.042543l-0.102684,0l0,-1.042543zm-0.185621,0l0.098704,0l0,1.042543l-0.098704,0l0,-1.042543zm-0.104245,-0.104184l1.250972,0l0,1.250942l-1.250972,0l0,-1.250942z"
           id="svg_12"
           stroke="null" />
        <path
           fill-rule="evenodd"
           clip-rule="evenodd"
           fill="#000000"
           d="m9.336849,7.231538l0.098704,0l0,1.042513l-0.098704,0l0,-1.042513zm-0.189509,0l0.102623,0l0,1.042513l-0.102623,0l0,-1.042513zm-0.189631,0l0.102684,0l0,1.042513l-0.102684,0l0,-1.042513zm-0.189509,0l0.102684,0l0,1.042513l-0.102684,0l0,-1.042513zm-0.18957,0l0.102684,0l0,1.042513l-0.102684,0l0,-1.042513zm-0.18559,0l0.098796,0l0,1.042513l-0.098796,0l0,-1.042513zm-0.104184,-0.104276l1.250942,0l0,1.250942l-1.250942,0l0,-1.250942z"
           id="svg_13"
           stroke="null" />
      </g>
      <path
         fill-rule="evenodd"
         clip-rule="evenodd"
         fill="#000000"
         d="m5.131407,10.406376c0.19058,0 0.345065,0.154577 0.345065,0.345096c0,0.19058 -0.154485,0.345065 -0.345065,0.345065c-0.190611,0 -0.345096,-0.154485 -0.345096,-0.345065c0,-0.190519 0.154485,-0.345096 0.345096,-0.345096"
         id="svg_14"
         stroke="null" />
      <path
         stroke="null"
         id="svg_15"
         d="m5.131407,10.504315c0.031564,0 0.06169,0.005939 0.089489,0.016716c-0.030125,0.01742 -0.050515,0.050056 -0.050515,0.087376c0,0.05572 0.045188,0.100816 0.100908,0.100816c0.038177,0 0.071303,-0.021216 0.088478,-0.052505c0.012093,0.029176 0.018828,0.0612 0.018828,0.094816c0,0.136483 -0.110674,0.247157 -0.247157,0.247157c-0.136483,0 -0.247188,-0.110674 -0.247188,-0.247157c-0.000031,-0.136575 0.110705,-0.247219 0.247157,-0.247219"
         clip-rule="evenodd"
         fill-rule="evenodd" />
      <path
         fill="#000000"
         d="m6.048825,12.893319c-0.854657,-0.405561 -1.323775,-0.956912 -1.584802,-1.558779c-0.317481,0.090652 -0.699101,0.148545 -1.142472,0.173405c-0.167068,0.009399 -0.342769,0.014206 -0.527165,0.014206c-0.212531,0 -0.436574,-0.006276 -0.6717,-0.018767c0.783752,0.783293 1.747951,1.386353 3.533252,1.397436c0.131799,-0.000031 0.262649,-0.002602 0.392886,-0.007501z"
         id="svg_16"
         stroke="null" />
    </g>
  </g>
</svg>
