<?xml version="1.0" encoding="UTF-8" standalone="no"?>
<!-- Created with Inkscape (http://www.inkscape.org/) -->

<svg
   xmlns:dc="http://purl.org/dc/elements/1.1/"
   xmlns:cc="http://creativecommons.org/ns#"
   xmlns:rdf="http://www.w3.org/1999/02/22-rdf-syntax-ns#"
   xmlns:svg="http://www.w3.org/2000/svg"
   xmlns="http://www.w3.org/2000/svg"
   xmlns:sodipodi="http://sodipodi.sourceforge.net/DTD/sodipodi-0.dtd"
   xmlns:inkscape="http://www.inkscape.org/namespaces/inkscape"
   width="16"
   height="16"
   viewBox="0 0 4.2333332 4.2333335"
   version="1.1"
   id="svg5111"
   sodipodi:docname="fsDark.svg"
   inkscape:version="0.92.4 (5da689c313, 2019-01-14)">
  <defs
     id="defs5105" />
  <sodipodi:namedview
     id="base"
     pagecolor="#ffffff"
     bordercolor="#666666"
     borderopacity="1.0"
     inkscape:pageopacity="0"
     inkscape:pageshadow="2"
     inkscape:zoom="36.211029"
     inkscape:cx="13.840829"
     inkscape:cy="9.1390436"
     inkscape:document-units="mm"
     inkscape:current-layer="layer1"
     showgrid="true"
     units="px"
     inkscape:window-width="1920"
     inkscape:window-height="1017"
     inkscape:window-x="-8"
     inkscape:window-y="-8"
     inkscape:window-maximized="1">
    <inkscape:grid
       type="xygrid"
       id="grid5656" />
  </sodipodi:namedview>
  <metadata
     id="metadata5108">
    <rdf:RDF>
      <cc:Work
         rdf:about="">
        <dc:format>image/svg+xml</dc:format>
        <dc:type
           rdf:resource="http://purl.org/dc/dcmitype/StillImage" />
        <dc:title></dc:title>
      </cc:Work>
    </rdf:RDF>
  </metadata>
  <g
     inkscape:label="Layer 1"
     inkscape:groupmode="layer"
     id="layer1"
     transform="translate(0,-292.76665)">
    <path
       style="opacity:1;fill:#ebebeb;fill-opacity:1;fill-rule:nonzero;stroke:none;stroke-width:1.00157475;stroke-linecap:butt;stroke-linejoin:round;stroke-miterlimit:4;stroke-dasharray:none;stroke-opacity:1;paint-order:normal"
       d="M 3,1 C 1.8920001,1 1,1.891971 1,3 v 10 c 0,1.108029 0.8920001,2 2,2 h 10 c 1.108,0 2,-0.891971 2,-2 V 3 C 15,1.891971 14.108,1 13,1 Z M 3.5039062,4.7714844 H 7.5527344 V 5.5800781 H 4.7695312 v 2.1113281 h 2.046875 V 8.484375 h -2.046875 v 2.751953 h -1.265625 z m 6.0683594,0 h 2.6230464 v 0.8085937 h -2.103515 c -0.09067,0 -0.1709003,0.022439 -0.2402345,0.070312 -0.069334,0.048126 -0.1277813,0.1160065 -0.1757813,0.2011719 -0.048,0.085417 -0.086615,0.1830479 -0.1132812,0.2949219 -0.021342,0.1065827 -0.03125,0.2210413 -0.03125,0.34375 0,0.2773165 0.05101,0.5011915 0.1523438,0.671875 0.1013341,0.1705827 0.2375372,0.2558594 0.4082032,0.2558594 h 1.080078 c 0.218666,0 0.410838,0.04601 0.576172,0.1367187 0.165334,0.090709 0.304017,0.2169531 0.416015,0.3769531 0.112001,0.16 0.194713,0.3521719 0.248047,0.5761719 0.05867,0.2187087 0.08789,0.4574587 0.08789,0.71875 0,0.2826583 -0.03366,0.547627 -0.09766,0.7929685 -0.05867,0.240126 -0.14386,0.449669 -0.25586,0.63086 -0.112,0.181417 -0.243771,0.327011 -0.398437,0.433593 -0.154666,0.101292 -0.327004,0.150391 -0.513672,0.150391 H 8.5625 v -0.791016 h 2.152344 c 0.096,0 0.181193,-0.02666 0.255859,-0.08008 0.07467,-0.05871 0.140025,-0.136422 0.193359,-0.232422 0.05334,-0.096 0.09248,-0.2079371 0.119141,-0.3359371 0.02667,-0.1332914 0.04102,-0.2744612 0.04102,-0.4238281 0,-0.176126 -0.01683,-0.3266613 -0.04883,-0.4492188 -0.02667,-0.1227087 -0.07768,-0.217818 -0.152344,-0.2871094 -0.06933,-0.074583 -0.161965,-0.1281562 -0.279297,-0.1601562 -0.117334,-0.032 -0.267886,-0.046875 -0.449219,-0.046875 H 9.6992188 c -0.2186659,0 -0.4133171,-0.043489 -0.5839844,-0.1289063 C 8.9445685,8.2081195 8.8009279,8.0843962 8.6835938,7.9296875 8.5715937,7.7696875 8.4864002,7.5819647 8.4277344,7.3632812 8.3690685,7.1445726 8.3398438,6.9013735 8.3398438,6.6347656 c 0,-0.256 0.029225,-0.4967031 0.087891,-0.7207031 C 8.4864002,5.6847712 8.5691129,5.4876578 8.6757812,5.3222656 8.7824471,5.1516829 8.9092596,5.0179506 9.0585938,4.921875 9.2132596,4.8205837 9.385598,4.7714844 9.5722656,4.7714844 Z"
       transform="matrix(0.26458333,0,0,0.26458333,0,292.76665)"
       id="rect5660"
       inkscape:connector-curvature="0" />
  </g>
</svg>
